<?xml version="1.0" encoding="utf-8"?>
<!-- Generator: Adobe Illustrator 19.2.1, SVG Export Plug-In . SVG Version: 6.00 Build 0)  -->
<svg version="1.1" id="Layer_1" xmlns="http://www.w3.org/2000/svg" xmlns:xlink="http://www.w3.org/1999/xlink" x="0px" y="0px"
	 viewBox="0 0 730 232" style="enable-background:new 0 0 730 232;" xml:space="preserve">
<style type="text/css">
	.st0{fill:white;}
</style>
<g>
	<g>
		<path class="st0" d="M60,32c0,0,0.1-0.5,0.3-1.3c0.1-0.4,0.2-0.9,0.4-1.5s0.4-1.3,0.8-1.9c0.3-0.7,0.7-1.4,1.2-2.2
			c0.4-0.8,1.1-1.5,1.7-2.2c0.7-0.7,1.3-1.5,2.2-2.1c0.8-0.7,1.7-1.3,2.5-1.9c0.9-0.5,1.8-1.1,2.8-1.5c0.9-0.5,2-0.8,3-1.1
			c1-0.1,2-0.3,2.9-0.1c0.5,0,0.9,0.1,1.4,0.2c0.4,0.1,0.8,0.2,1.2,0.3c0.8,0.2,1.5,0.5,2,0.8c0.3,0.2,0.6,0.3,0.8,0.4
			c0.2,0.2,0.4,0.3,0.6,0.5c0.8,0.6,1.1,1,1.1,1l-0.2,0.5c0,0-0.6,0.2-1.4,0.3c-0.4,0.1-0.9,0.2-1.5,0.3c-0.6,0.1-1.2,0.2-1.8,0.3
			c-0.6,0.1-1.3,0.3-2,0.4s-1.4,0.3-2.2,0.4c-0.7,0.2-1.6,0.2-2.4,0.3c-0.8,0.1-1.6,0.4-2.5,0.6c-0.8,0.3-1.6,0.7-2.3,1.1
			c-0.8,0.4-1.4,0.9-2.2,1.3c-0.6,0.5-1.3,1-1.8,1.6c-0.6,0.5-1.1,1.1-1.5,1.6c-0.5,0.5-0.8,1-1.1,1.5c-0.3,0.4-0.6,0.9-0.8,1.3
			c-0.4,0.7-0.7,1.2-0.7,1.2L60,32z"/>
		<path class="st0" d="M50.6,27.6c0,0,0.2-0.7,0.5-1.9c0.1-0.3,0.2-0.6,0.3-1s0.3-0.8,0.5-1.2c0.3-0.9,0.7-1.8,1.3-2.8
			c0.3-0.5,0.5-1,0.8-1.6c0.3-0.5,0.7-1,1-1.6c0.7-1.1,1.7-2.1,2.6-3.2c1-1,2-2.1,3.3-3c1.2-1,2.5-1.8,3.8-2.6
			c1.4-0.7,2.7-1.5,4.2-2.1c1.4-0.7,2.9-1.1,4.3-1.4c1.5-0.2,2.9-0.4,4.3-0.3c0.7,0,1.3,0.1,2,0.1c0.6,0.1,1.2,0.3,1.8,0.4
			c1.2,0.2,2.2,0.6,3.1,1c0.4,0.2,0.8,0.4,1.2,0.5c0.4,0.2,0.7,0.4,1,0.6c1.2,0.7,1.8,1.2,1.8,1.2l-0.2,0.5c0,0-0.8,0.1-2.1,0.1
			c-0.6,0-1.4,0-2.3,0.1c-0.9,0-1.8,0.1-2.8,0.2c-0.5,0-1,0.1-1.6,0.1c-0.5,0.1-1.1,0.2-1.7,0.3c-1.1,0.1-2.3,0.4-3.5,0.5
			c-1.2,0.3-2.5,0.4-3.8,0.7c-1.3,0.2-2.6,0.7-3.8,1.2c-1.2,0.6-2.5,1.1-3.6,1.9c-1.2,0.7-2.2,1.5-3.3,2.2c-0.9,0.9-2,1.6-2.7,2.5
			c-0.4,0.4-0.8,0.9-1.2,1.3c-0.3,0.4-0.7,0.9-1,1.3c-0.7,0.8-1.2,1.6-1.6,2.4c-0.5,0.7-0.9,1.4-1.1,2c-0.6,1.1-0.9,1.8-0.9,1.8
			L50.6,27.6z"/>
		<path class="st0" d="M129.7,180.5c-5.3,0-9.6-4.5-9.6-10.1s4.3-14.9,9.6-14.9c5.3,0,9.6,9.4,9.6,14.9
			C139.3,176,135,180.5,129.7,180.5z M127.9,159.9c-1,0-1.8,1-1.8,2.3c0,1.2,0.8,2.3,1.8,2.3c1,0,1.8-1,1.8-2.3
			S128.9,159.9,127.9,159.9z"/>
		<path class="st0" d="M163.3,92.6c-1.9-10.6-9.7-18.4-19-18.4c-6,0-11.4,3.2-15,8.4c-6.9-1-14-1.6-21.3-1.6
			c-5.3,0-10.5,0.3-15.6,0.8L81.6,39.7c2.5-1.1,4.2-3.2,4.2-5.6c0-3.5-3.6-6.4-8-6.4s-8,2.9-8,6.4c0,3.2,2.9,5.8,6.7,6.3l3.2,43.5
			c-9.7,2-18.7,4.9-27,8.7c-3-8.1-9.8-13.7-17.7-13.7c-10.7,0-19.4,10.4-19.4,23.3c0,5.5,1.6,10.6,4.3,14.6
			c-9,10.9-14.2,23.7-14.2,37.2c0,40.3,45.8,73,102.4,73c56.5,0,102.4-32.7,102.4-73C210.5,128.2,191.7,105.6,163.3,92.6z
			 M75.5,34.2c-1,0-1.8-1-1.8-2.3c0-1.2,0.8-2.3,1.8-2.3s1.8,1,1.8,2.3S76.5,34.2,75.5,34.2z M123.5,216.4
			c-41.9,0-75.8-25.6-75.8-57.3c0-31.6,34-57.3,75.8-57.3c41.9,0,75.9,25.6,75.9,57.3S165.4,216.4,123.5,216.4z"/>
		<path class="st0" d="M156.7,175.6c-4.5,0-8.2-3.8-8.2-8.5s3.7-12.7,8.2-12.7s8.2,8,8.2,12.7S161.2,175.6,156.7,175.6z
			 M156.1,158.2c-0.7,0-1.2,0.7-1.2,1.6c0,0.9,0.5,1.6,1.2,1.6s1.2-0.7,1.2-1.6S156.8,158.2,156.1,158.2z"/>
	</g>
	<g>
		<path class="st0" d="M275.6,133.3c-0.4,5.3-0.9,10.5-1.4,15.7s-0.9,10-1.4,14.7c-0.4,4.6-0.7,8.7-0.9,12.3
			c-0.2,3.6-0.3,6.4-0.3,8.4c0,3.6,0.4,6,1.3,7.2c0.8,1.2,2.2,1.8,4.2,1.8c1.5,0,2.9-0.3,4-0.8c1.1-0.6,2.2-1.2,3.1-1.9
			c1-0.7,1.8-1.3,2.6-1.9c0.8-0.6,1.6-0.8,2.6-0.8s1.9,0.6,2.7,1.7c0.8,1.1,1.3,3.7,1.3,7.7c0,7.7-2.1,13.7-6.3,18.2
			c-4.2,4.5-11.4,6.7-21.6,6.7c-10,0-17.5-2.3-22.3-7s-7.2-11.8-7.2-21.5c0-2.1,0.1-4.6,0.3-7.4c0.2-2.9,0.5-6.6,0.9-11.2
			c0.4-4.6,0.9-10.3,1.6-17c0.6-6.7,1.3-15,2-24.9h-11.1c-1.1,0-1.8-0.2-2-0.7s-0.3-1.2-0.3-2.2l0.6-10.7c0.1-1.8,0.4-3.6,0.7-5.3
			c0.3-1.7,1-3.3,2.1-4.7c1-1.4,2.5-2.5,4.5-3.3s4.5-1.3,7.7-1.3c1-2.5,2.1-5.5,3.3-9c1.3-3.5,2.5-6.9,3.8-10.2
			c1.3-3.3,2.5-6,3.7-8.3c1.2-2.2,2.3-3.3,3.2-3.3h6.1c5.9,0,9.9,1.8,12.1,5.4s3.3,8,3.3,13c0,2.8-0.2,6.9-0.6,12.3h22
			c2.2,0,3.3,1,3.3,2.9l-0.8,11.3c-0.3,4.2-1.4,7.6-3.5,10.2c-2,2.6-6.2,3.9-12.5,3.9H275.6z"/>
		<path class="st0" d="M352.6,222.2c-6.1,0-12.2-0.8-18.3-2.3c-6.1-1.5-11.5-4.2-16.3-8s-8.8-8.8-11.8-15.1
			c-3.1-6.3-4.6-14.2-4.6-23.6c0-3.5,0.3-7.7,0.8-12.6c0.6-4.9,1.6-9.9,3.2-15.1c1.6-5.2,3.8-10.3,6.7-15.4
			c2.9-5.1,6.6-9.7,11.2-13.7s10.2-7.3,16.7-9.8c6.6-2.5,14.4-3.8,23.4-3.8c7.3,0,13.4,0.8,18.4,2.5s9.1,3.9,12.1,6.8
			c3.1,2.9,5.3,6.2,6.7,9.9c1.4,3.8,2.1,7.8,2.1,12.1c0,6.4-1.3,11.9-3.9,16.3c-2.6,4.5-5.9,8.2-10,11.2s-8.7,5.3-13.7,7
			s-10,3-14.9,3.9s-9.4,1.5-13.5,1.7s-7.3,0.3-9.5,0.3c0,2.7,0.4,5.3,1.2,7.8c0.8,2.6,1.9,4.8,3.5,6.8c1.5,2,3.6,3.6,6.1,4.8
			c2.5,1.3,5.6,1.9,9.2,1.9s6.5-0.6,8.5-1.8s3.7-2.5,4.9-4c1.3-1.5,2.3-2.8,3.2-4c0.9-1.2,2.1-1.8,3.7-1.8c0.7,0,1.9,0.2,3.7,0.5
			c1.7,0.3,3.5,1.1,5.3,2.2c1.8,1.1,3.4,2.7,4.8,4.6c1.4,2,2.1,4.5,2.1,7.5c0,4-1.3,7.5-3.8,10.5c-2.5,2.9-5.8,5.3-9.7,7.1
			c-4,1.8-8.4,3.1-13.3,4C361.9,221.8,357.2,222.2,352.6,222.2z M356.6,130.8c-3.1,0-5.7,0.9-7.8,2.6c-2.2,1.7-4,3.9-5.4,6.6
			c-1.5,2.7-2.6,5.6-3.3,8.8c-0.8,3.2-1.4,6.3-1.8,9.2c8.6-0.1,15.7-1.6,21-4.4c5.4-2.8,8.1-6.8,8.1-11.9c0-2.8-0.9-5.3-2.6-7.5
			C362.9,131.9,360.2,130.8,356.6,130.8z"/>
		<path class="st0" d="M431.5,222c-8.7,0-14.9-2.3-18.6-6.9c-3.8-4.6-5.7-12.2-5.7-22.8c0-1.7,0.1-3.8,0.3-6.3
			c0.2-2.5,0.5-5.8,0.8-9.7c0.3-4,0.8-8.9,1.4-14.8c0.6-5.9,1.2-13,1.8-21.3c0.6-8.4,1.3-18.2,2.1-29.5c0.8-11.3,1.6-24.4,2.4-39.3
			c0.1-3.1,0.5-4.9,1-5.4c0.4-0.4,1.5-0.6,3.3-0.6h8.2c4.2,0,7.7,0.5,10.5,1.5s5,2.3,6.7,4s2.9,3.6,3.6,5.8c0.7,2.2,1,4.4,1,6.8
			c0,2.8-0.2,6.8-0.5,12s-0.8,11.1-1.4,17.7s-1.1,13.4-1.7,20.5c-0.6,7.1-1.1,13.9-1.7,20.4s-1,12.3-1.4,17.5s-0.5,9.1-0.5,11.7
			c0,3.6,0.7,6.2,2,7.7s2.8,2.6,4.3,3.2c1.5,0.6,3,1,4.3,1.3c1.3,0.2,2,0.7,2,1.4c0,3.1-0.3,6.1-1,9.1s-2,5.7-3.8,8.2
			c-1.8,2.4-4.3,4.4-7.4,5.9C440.4,221.3,436.4,222,431.5,222z"/>
		<path class="st0" d="M460.4,220.1c-1.5,0-2.3-0.8-2.3-2.3l0.6-11.3c0.1-3.8,1.4-7.4,3.9-10.9c2.4-3.5,5.9-7.8,10.4-13
			s10-11.7,16.5-19.6c6.6-7.9,14.2-18.2,22.8-30.9H473c-1.1,0-1.8-0.2-2-0.7s-0.3-1.2-0.3-2.2l0.6-9.6c0.1-1.8,0.4-3.6,0.7-5.3
			c0.3-1.7,1-3.3,2.1-4.7c1-1.4,2.5-2.5,4.5-3.3s4.5-1.3,7.7-1.3h71.6c0.8,0,1.6,0.2,2.3,0.6s1,1.2,1,2.3l-0.8,11.3
			c-0.1,3.5-1.5,7.2-4.2,11.1c-0.4,0.7-2.2,2.9-5.4,6.7s-7.2,8.5-11.8,14.3c-4.7,5.8-9.8,12.3-15.5,19.5s-11.2,14.5-16.6,22.1h44.8
			c0.8,0,1.6,0.2,2.3,0.6c0.7,0.4,1,1.2,1,2.3l-0.8,10.3c-0.3,4.2-1.4,7.6-3.5,10.2c-2,2.6-6.2,3.9-12.5,3.9h-77.8V220.1z"/>
		<path class="st0" d="M586.8,220.1c-4.3,0-7.8-0.5-10.6-1.4c-2.7-0.9-4.9-2.2-6.5-3.9s-2.7-3.7-3.3-6.2c-0.6-2.4-0.9-5.3-0.9-8.5
			c0-2.1,0.1-5.1,0.3-8.9c0.2-3.8,0.6-9.1,1.2-15.9c0.6-6.8,1.2-15.3,2-25.7s1.7-23.3,2.8-38.6c0.1-3.1,0.5-4.9,1-5.4
			c0.4-0.4,1.5-0.6,3.3-0.6h8.2c4.3,0,7.8,0.4,10.6,1.3s4.9,2.1,6.5,3.8c1.6,1.7,2.7,3.7,3.3,6.1s0.9,5,0.9,8c0,2.1-0.1,5.2-0.4,9.4
			c-0.3,4.2-0.7,9.9-1.2,17.1c-0.5,7.2-1.2,16.1-2,26.8s-1.9,23.5-3.1,38.6c-0.1,1.7-0.5,2.8-1,3.3c-0.6,0.6-1.7,0.8-3.6,0.8h-7.5
			V220.1z M571.9,80.3c0-5.6,2-10,6.1-13.2c4-3.2,9.5-4.8,16.3-4.8c6,0,10.4,1.2,13.1,3.7c2.7,2.4,4.1,5.7,4.1,9.7
			c0,5.2-1.9,9.5-5.8,12.9c-3.8,3.4-9.5,5.1-16.8,5.1C577.6,93.7,571.9,89.3,571.9,80.3z"/>
		<path class="st0" d="M662.5,222.2c-9.6,0-17.6-1.4-24-4.1c-6.4-2.7-11.4-6.5-15.2-11.2s-6.4-10.3-8-16.6
			c-1.5-6.3-2.3-13.1-2.3-20.4c0-8.4,1-16.6,3-24.6s5.5-15.2,10.4-21.5s11.3-11.3,19.4-15.2c8-3.8,18-5.8,30-5.8
			c17.6,0,30.2,4.3,37.8,12.9s11.4,20.6,11.4,36.1c0,4.3-0.3,9.1-0.9,14.3c-0.6,5.2-1.8,10.4-3.6,15.6c-1.7,5.2-4.1,10.2-7.1,15.1
			c-3,4.9-6.8,9.2-11.4,13c-4.6,3.8-10.2,6.8-16.6,9C679,221.1,671.3,222.2,662.5,222.2z M672.4,130.8c-5.3,0-9.5,1.4-12.7,4.1
			c-3.1,2.7-5.5,6-7.1,9.8s-2.7,7.9-3.1,12.1c-0.5,4.3-0.7,7.8-0.7,10.8c0,9.2,1.5,16,4.4,20.3s7.1,6.5,12.6,6.5
			c4.9,0,8.9-1.5,12-4.6s5.6-6.8,7.3-11.1s2.9-8.9,3.6-13.6c0.6-4.7,0.9-8.7,0.9-11.9c0-7-1.3-12.5-3.9-16.4
			C683.1,132.8,678.7,130.8,672.4,130.8z"/>
	</g>
</g>
</svg>
